{"title":"Suite.Francaise.2014.1080p.BluRay.H264.AAC-RARBG","uid":12149503,"size":2211043562,"categoryP":"video","categoryS":"hd___movies","magnet":"?xt=urn:btih:9ec025c9441f7782ebbb1bf8d819e9f91ffd30c3&amp;dn=Suite.Francaise.2014.1080p.BluRay.H264.AAC-RARBG&amp;tr=udp%3A%2F%2Ftracker.openbittorrent.com%3A80&amp;tr=udp%3A%2F%2Fopen.demonii.com%3A1337&amp;tr=udp%3A%2F%2Ftracker.coppersurfer.tk%3A6969&amp;tr=udp%3A%2F%2Fexodus.desync.com%3A6969","seeders":1,"leechers":0,"uploader":"vickey1992","files":5,"time":1437574846,"description":"Video\nID                                       : 1\nFormat                                   : AVC\nFormat/Info                              : Advanced Video Codec\nFormat profile                           : &lt;a class=&quot;__cf_email__&quot; href=&quot;/cdn-cgi/l/email-protection&quot; data-cfemail=&quot;0941606e6149453d2738&quot;&gt;[email&amp;#160;protected]&lt;/a&gt;&lt;script data-cfhash='f9e31' type=&quot;text/javascript&quot;&gt;\n/* &lt;![CDATA[ */!function(){try{var t=&quot;currentScript&quot;in document?document.currentScript:function(){for(var t=document.getElementsByTagName(&quot;script&quot;),e=t.length;e--;)if(t[e].getAttribute(&quot;data-cfhash&quot;))return t[e]}();if(t&amp;&amp;t.previousSibling){var e,r,n,i,c=t.previousSibling,a=c.getAttribute(&quot;data-cfemail&quot;);if(a){for(e=&quot;&quot;,r=parseInt(a.substr(0,2),16),n=2;a.length-n;n+=2)i=parseInt(a.substr(n,2),16)^r,e+=String.fromCharCode(i);e=document.createTextNode(e),c.parentNode.replaceChild(e,c)}t.parentNode.removeChild(t);}}catch(u){}}()/* ]]&gt; */&lt;/script&gt;\nFormat settings, CABAC                   : Yes\nFormat settings, ReFrames                : 4 frames\nCodec ID                                 : avc1\nCodec ID/Info                            : Advanced Video Coding\nDuration                                 : 1h 47mn\nBit rate                                 : 2 500 Kbps\nWidth                                    : 1 920 pixels\nHeight                                   : 804 pixels\nDisplay aspect ratio                     : 2.40:1\nFrame rate mode                          : Constant\nFrame rate                               : 24.000 fps\nColor space                              : YUV\nChroma subsampling                       : 4:2:0\nBit depth                                : 8 bits\nScan type                                : Progressive\nBits/(Pixel*Frame)                       : 0.067\nStream size                              : 1.88 GiB (92%)\nWriting library                          : x264 core 144 r2525M 40bb568\nEncoding settings                        : cabac=1 / ref=4 / deblock=1:-1:-1 / analyse=0x3:0x113 / me=umh / subme=9 / psy=1 / psy_rd=1.00:0.15 / mixed_ref=1 / me_range=24 / chroma_me=1 / trellis=2 / 8x8dct=1 / cqm=0 / deadzone=21,11 / fast_pskip=1 / chroma_qp_offset=-3 / threads=32 / lookahead_threads=4 / sliced_threads=0 / nr=0 / decimate=1 / interlaced=0 / bluray_compat=0 / constrained_intra=0 / bframes=3 / b_pyramid=2 / b_adapt=1 / b_bias=0 / direct=1 / weightb=1 / open_gop=0 / weightp=2 / keyint=250 / keyint_min=25 / scenecut=40 / intra_refresh=0 / rc_lookahead=50 / rc=2pass / mbtree=1 / bitrate=2500 / ratetol=1.0 / qcomp=0.60 / qpmin=0 / qpmax=69 / qpstep=4 / cplxblur=20.0 / qblur=0.5 / vbv_maxrate=31250 / vbv_bufsize=31250 / nal_hrd=none / filler=0 / ip_ratio=1.40 / aq=3:1.00\nEncoded date                             : UTC 1904-01-01 00:00:00\nTagged date                              : UTC 1904-01-01 00:00:00\n\nAudio\nID                                       : 2\nFormat                                   : AAC\nFormat/Info                              : Advanced Audio Codec\nFormat profile                           : LC\nCodec ID                                 : 40\nDuration                                 : 1h 47mn\nBit rate mode                            : Constant\nBit rate                                 : 224 Kbps\nChannel(s)                               : 2 channels\nChannel(s)_Original                      : 6 channels\nChannel positions                        : Front: L C R, Side: L R, LFE\nSampling rate                            : 48.0 KHz\nCompression mode                         : Lossy\nStream size                              : 173 MiB (8%)\nLanguage                                 : English\nEncoded date                             : UTC 1904-01-01 00:00:00\nTagged date                              : UTC 1904-01-01 00:00:00\n\nMenu #1\nID                                       : 3\nCodec ID                                 : text\nDuration                                 : 1h 47mn\nLanguage                                 : English\nEncoded date                             : UTC 1904-01-01 00:00:00\nTagged date                              : UTC 1904-01-01 00:00:00\nBit rate mode                            : CBR\n00:00:00.000                             : 00:00:00.000\n00:08:14.001                             : 00:08:13.958\n00:14:45.293                             : 00:14:45.250\n00:26:07.543                             : 00:26:07.458\n00:31:33.626                             : 00:31:33.583\n00:41:20.960                             : 00:41:20.917\n00:46:53.335                             : 00:46:53.292\n00:54:48.585                             : 00:54:48.542\n00:59:58.668                             : 00:59:58.542\n01:06:06.543                             : 01:06:06.500\n01:13:17.043                             : 01:13:17.000\n01:19:06.085                             : 01:19:06.042\n01:24:25.751                             : 01:24:25.708\n01:30:40.501                             : 01:30:40.458\n01:34:49.543                             : 01:34:49.500\n01:41:05.418                             : 01:41:05.292\n\nMenu #2\n00:00:00.043                             : 00:00:00.000\n00:08:14.001                             : 00:08:13.958\n00:14:45.293                             : 00:14:45.250\n00:26:07.543                             : 00:26:07.458\n00:31:33.626                             : 00:31:33.583\n00:41:20.960                             : 00:41:20.917\n00:46:53.335                             : 00:46:53.292\n00:54:48.585                             : 00:54:48.542\n00:59:58.668                             : 00:59:58.542\n01:06:06.543                             : 01:06:06.500\n01:13:17.043                             : 01:13:17.000\n01:19:06.085                             : 01:19:06.042\n01:24:25.751                             : 01:24:25.708\n01:30:40.501                             : 01:30:40.458\n01:34:49.543                             : 01:34:49.500\n01:41:05.418                             : 01:41:05.292","torrent":{"xt":"urn:btih:9ec025c9441f7782ebbb1bf8d819e9f91ffd30c3","amp;dn":"Suite.Francaise.2014.1080p.BluRay.H264.AAC-RARBG","amp;tr":["udp%3A%2F%2Ftracker.openbittorrent.com%3A80","udp%3A%2F%2Fopen.demonii.com%3A1337","udp%3A%2F%2Ftracker.coppersurfer.tk%3A6969","udp%3A%2F%2Fexodus.desync.com%3A6969"],"infoHash":"9ec025c9441f7782ebbb1bf8d819e9f91ffd30c3","infoHashBuffer":{"type":"Buffer","data":[158,192,37,201,68,31,119,130,235,187,27,248,216,25,233,249,31,253,48,195]},"announce":[],"urlList":[]}}